<svg width="32" height="32" viewBox="0 0 32 32" fill="none" xmlns="http://www.w3.org/2000/svg">
<path d="M10 26H22L21 23H11L10 26Z" stroke="#CBCBCB" stroke-linejoin="round"/>
<path d="M15 19L14 23" stroke="#CBCBCB" stroke-linejoin="round"/>
<path d="M17 19L18 23" stroke="#CBCBCB" stroke-linejoin="round"/>
<path d="M10 6V13C10 14.5913 10.6321 16.1174 11.7574 17.2426C12.8826 18.3679 14.4087 19 16 19C17.5913 19 19.1174 18.3679 20.2426 17.2426C21.3679 16.1174 22 14.5913 22 13V6H10Z" stroke="#CBCBCB" stroke-linejoin="round"/>
<path d="M21.9297 13.93C22.1156 13.9791 22.3074 14.0026 22.4997 14C23.1627 14 23.7986 13.7366 24.2675 13.2678C24.7363 12.7989 24.9997 12.163 24.9997 11.5C24.9997 10.837 24.7363 10.2011 24.2675 9.73223C23.7986 9.26339 23.1627 9 22.4997 9C22.3334 8.9847 22.166 8.9847 21.9997 9" stroke="#CBCBCB" stroke-linejoin="round"/>
<path d="M10 9.05005C9.83368 9.03475 9.66632 9.03475 9.5 9.05005C8.83696 9.05005 8.20107 9.31344 7.73223 9.78228C7.26339 10.2511 7 10.887 7 11.55C7 12.2131 7.26339 12.849 7.73223 13.3178C8.20107 13.7867 8.83696 14.05 9.5 14.05C9.6923 14.0527 9.88405 14.0291 10.07 13.98" stroke="#CBCBCB" stroke-linejoin="round"/>
</svg>
