<svg width="44" height="44" viewBox="0 0 44 44" fill="none" xmlns="http://www.w3.org/2000/svg">
<path d="M19 12H13C12.4477 12 12 12.4477 12 13V19C12 19.5523 12.4477 20 13 20H19C19.5523 20 20 19.5523 20 19V13C20 12.4477 19.5523 12 19 12Z" stroke="#CBCBCB" stroke-width="2"/>
<path d="M31 12H25C24.4477 12 24 12.4477 24 13V19C24 19.5523 24.4477 20 25 20H31C31.5523 20 32 19.5523 32 19V13C32 12.4477 31.5523 12 31 12Z" stroke="#CBCBCB" stroke-width="2"/>
<path d="M19 24H13C12.4477 24 12 24.4477 12 25V31C12 31.5523 12.4477 32 13 32H19C19.5523 32 20 31.5523 20 31V25C20 24.4477 19.5523 24 19 24Z" stroke="#CBCBCB" stroke-width="2"/>
<path d="M31 24H25C24.4477 24 24 24.4477 24 25V31C24 31.5523 24.4477 32 25 32H31C31.5523 32 32 31.5523 32 31V25C32 24.4477 31.5523 24 31 24Z" stroke="#CBCBCB" stroke-width="2"/>
</svg>
