<svg width="46" height="46" viewBox="0 0 46 46" fill="none" xmlns="http://www.w3.org/2000/svg">
<path d="M44 13.9927C44 12.6391 43.4512 11.3433 42.479 10.4015L41.4542 9.4088C40.5215 8.50524 39.2739 8 37.9753 8H16.2215C14.8072 8 13.459 8.59899 12.511 9.64857L3.0271 20.1486C1.30778 22.0521 1.30778 24.9479 3.0271 26.8514L12.511 37.3514C13.459 38.401 14.8072 39 16.2215 39H37.9753C39.2739 39 40.5215 38.4948 41.4542 37.5912L42.479 36.5985C43.4512 35.6567 44 34.3609 44 33.0073V13.9927Z" stroke="#CBCBCB" stroke-width="3" stroke-miterlimit="10"/>
<path d="M31.5 18L20 29.5" stroke="#CBCBCB" stroke-width="3" stroke-miterlimit="10" stroke-linecap="round"/>
<path d="M20 18L31.5 29.5" stroke="#CBCBCB" stroke-width="3" stroke-miterlimit="10" stroke-linecap="round"/>
</svg>
