<svg width="46" height="46" viewBox="0 0 46 46" fill="none" xmlns="http://www.w3.org/2000/svg">
<path d="M33.5423 43.1252C38.835 43.1252 43.1257 38.8346 43.1257 33.5418C43.1257 28.2491 38.835 23.9585 33.5423 23.9585C28.2496 23.9585 23.959 28.2491 23.959 33.5418C23.959 38.8346 28.2496 43.1252 33.5423 43.1252Z" stroke="#CBCBCB" stroke-width="2"/>
<path d="M24.725 37.3749H5.875C4.21815 37.3749 2.875 36.0318 2.875 34.3749V9.70825C2.875 8.05139 4.21815 6.70825 5.875 6.70825H36.2917C37.9485 6.70825 39.2917 8.0514 39.2917 9.70825V25.8749" stroke="#CBCBCB" stroke-width="2"/>
<path d="M30.6673 16.2915H9.58398" stroke="#CBCBCB" stroke-width="2" stroke-linecap="round"/>
<path d="M17.2507 25.875H9.58398" stroke="#CBCBCB" stroke-width="2" stroke-linecap="round"/>
<path d="M31.625 1.91675V6.70841" stroke="#CBCBCB" stroke-width="2" stroke-linecap="round"/>
<path d="M12.459 1.9165V6.70817" stroke="#CBCBCB" stroke-width="2" stroke-linecap="round"/>
<path d="M22.041 1.9165V6.70817" stroke="#CBCBCB" stroke-width="2" stroke-linecap="round"/>
<path d="M33.541 29.7085V37.3752" stroke="#CBCBCB" stroke-width="2" stroke-miterlimit="10" stroke-linecap="round"/>
<path d="M37.3757 33.5415H29.709" stroke="#CBCBCB" stroke-width="2" stroke-miterlimit="10" stroke-linecap="round"/>
</svg>
