<svg width="46" height="46" viewBox="0 0 46 46" fill="none" xmlns="http://www.w3.org/2000/svg">
<path d="M19.166 41.25C19.7183 41.25 20.166 40.8023 20.166 40.25C20.166 39.6977 19.7183 39.25 19.166 39.25L19.166 41.25ZM19.166 39.25C15.9521 39.25 12.8103 38.297 10.138 36.5114L9.02687 38.1743C12.0281 40.1797 15.5565 41.25 19.166 41.25L19.166 39.25ZM10.138 36.5114C7.46571 34.7258 5.3829 32.1879 4.15298 29.2186L2.30522 29.984C3.68652 33.3187 6.02567 36.169 9.02687 38.1743L10.138 36.5114ZM4.15298 29.2186C2.92306 26.2493 2.60125 22.982 3.22826 19.8298L1.26669 19.4396C0.562512 22.9798 0.923923 26.6492 2.30522 29.984L4.15298 29.2186ZM3.22826 19.8298C3.85527 16.6776 5.40293 13.7821 7.67554 11.5095L6.26132 10.0953C3.70902 12.6476 1.97087 15.8995 1.26669 19.4396L3.22826 19.8298ZM7.67554 11.5095C9.94814 9.23692 12.8436 7.68926 15.9958 7.06225L15.6056 5.10068C12.0655 5.80486 8.81363 7.543 6.26132 10.0953L7.67554 11.5095ZM15.9958 7.06225C19.148 6.43524 22.4153 6.75704 25.3846 7.98697L26.15 6.13921C22.8152 4.75791 19.1458 4.3965 15.6056 5.10068L15.9958 7.06225ZM25.3846 7.98697C28.3539 9.21689 30.8918 11.2997 32.6774 13.972L34.3403 12.8609C32.335 9.85965 29.4847 7.52051 26.15 6.13921L25.3846 7.98697ZM32.6774 13.972C34.463 16.6443 35.416 19.7861 35.416 23H37.416C37.416 19.3905 36.3457 15.862 34.3403 12.8609L32.6774 13.972ZM35.416 23V28.75H37.416V23H35.416Z" fill="#CBCBCB"/>
<path d="M44.0833 21.0833L36.4167 28.7499L28.75 21.0833" stroke="#CBCBCB" stroke-width="2" stroke-linecap="round"/>
</svg>
