<svg width="32" height="32" viewBox="0 0 32 32" fill="none" xmlns="http://www.w3.org/2000/svg">
<g clip-path="url(#clip0_218_815)">
<path d="M8.79922 11.8001V13.6001C8.79439 14.5285 8.45334 15.4238 7.83922 16.1201L6.39922 18.0401C5.62789 19.0826 5.20769 20.3433 5.19922 21.6401V22.6001H26.7992V21.6401C26.7908 20.3433 26.3705 19.0826 25.5992 18.0401L24.1592 16.1201C23.5451 15.4238 23.2041 14.5285 23.1992 13.6001V11.8001C23.1992 9.89054 22.4407 8.05919 21.0904 6.70893C19.7401 5.35867 17.9088 4.6001 15.9992 4.6001C14.0897 4.6001 12.2583 5.35867 10.9081 6.70893C9.55779 8.05919 8.79922 9.89054 8.79922 11.8001Z" stroke="#CBCBCB" stroke-linejoin="round"/>
<path d="M20 23C20 24.0609 19.5786 25.0783 18.8284 25.8284C18.0783 26.5786 17.0609 27 16 27C14.9391 27 13.9217 26.5786 13.1716 25.8284C12.4214 25.0783 12 24.0609 12 23" stroke="#CBCBCB" stroke-linejoin="round"/>
</g>
<defs>
<clipPath id="clip0_218_815">
<rect width="24" height="24" fill="white" transform="translate(4 4)"/>
</clipPath>
</defs>
</svg>
